<svg width="18" height="18" viewBox="0 0 18 18" fill="none" xmlns="http://www.w3.org/2000/svg">
<path d="M6.1875 15.75C6.80882 15.75 7.3125 15.2463 7.3125 14.625C7.3125 14.0037 6.80882 13.5 6.1875 13.5C5.56618 13.5 5.0625 14.0037 5.0625 14.625C5.0625 15.2463 5.56618 15.75 6.1875 15.75Z" fill="#272727"/>
<path d="M14.0625 15.75C14.6838 15.75 15.1875 15.2463 15.1875 14.625C15.1875 14.0037 14.6838 13.5 14.0625 13.5C13.4412 13.5 12.9375 14.0037 12.9375 14.625C12.9375 15.2463 13.4412 15.75 14.0625 15.75Z" fill="#272727"/>
<path d="M16.0594 4.24617C15.9803 4.14951 15.8808 4.07166 15.7679 4.01827C15.6551 3.96487 15.5317 3.93729 15.4069 3.9375H4.70707L4.49156 2.71477C4.46858 2.58452 4.40045 2.46654 4.29912 2.38154C4.19779 2.29655 4.06976 2.24997 3.9375 2.25H1.6875C1.53832 2.25 1.39524 2.30926 1.28975 2.41475C1.18426 2.52024 1.125 2.66332 1.125 2.8125C1.125 2.96168 1.18426 3.10476 1.28975 3.21025C1.39524 3.31574 1.53832 3.375 1.6875 3.375H3.4657L5.07094 12.4727C5.09392 12.603 5.16205 12.721 5.26338 12.806C5.36471 12.891 5.49274 12.9375 5.625 12.9375H14.625C14.7742 12.9375 14.9173 12.8782 15.0227 12.7727C15.1282 12.6673 15.1875 12.5242 15.1875 12.375C15.1875 12.2258 15.1282 12.0827 15.0227 11.9773C14.9173 11.8718 14.7742 11.8125 14.625 11.8125H6.0968L5.89852 10.6875H14.3944C14.5894 10.6873 14.7784 10.6196 14.9294 10.496C15.0803 10.3725 15.1839 10.2005 15.2227 10.0093L16.2352 4.94684C16.2596 4.82432 16.2564 4.69791 16.226 4.57674C16.1956 4.45557 16.1387 4.34266 16.0594 4.24617Z" fill="#272727"/>
</svg>
