<svg width="30" height="24" viewBox="0 0 30 24" fill="none" xmlns="http://www.w3.org/2000/svg">
<g id="brandico:mastercard" clip-path="url(#clip0_17_783)">
<path id="Vector" d="M1.39593 2.84964C0.62523 2.84964 0 3.47454 0 4.24557V20.2937C0 21.0646 0.62532 21.6896 1.39593 21.6896H28.6041C29.3748 21.6896 30 21.0647 30 20.2937V4.24554C30 3.47463 29.3747 2.84961 28.6041 2.84961H1.3959L1.39593 2.84964ZM9.83718 5.11746C11.5496 5.11746 13.1223 5.71323 14.3569 6.70839C13.3182 7.63776 12.5435 8.85879 12.1613 10.2428H12.7603C13.1131 9.10104 13.754 8.08452 14.5988 7.27839C15.4435 8.08452 16.0844 9.10104 16.4372 10.2428H17.0456C16.6581 8.86608 15.8823 7.65234 14.8444 6.72903C16.0813 5.72124 17.6602 5.11743 19.38 5.11743C23.3487 5.11743 26.5659 8.33499 26.5659 12.3043C26.5659 16.2736 23.3487 19.4912 19.38 19.4912C17.6316 19.4912 16.0284 18.8671 14.7825 17.829C15.897 16.8594 16.7186 15.5596 17.0944 14.0809H16.5084C16.1748 15.322 15.5032 16.4258 14.5987 17.289C13.6942 16.4258 13.0236 15.322 12.69 14.0809H12.1321C12.5101 15.5382 13.321 16.8198 14.4187 17.7803C13.1751 18.8056 11.5782 19.4218 9.83715 19.4218C5.86845 19.4218 2.65125 16.2197 2.65125 12.2696C2.65125 8.31954 5.86845 5.11746 9.83718 5.11746ZM18.8409 10.1696C17.9775 10.1696 17.1375 10.9245 17.1375 12.3418C17.1375 13.2817 17.5912 13.9018 18.4837 13.9018C18.7361 13.9019 19.1381 13.7987 19.1381 13.7987L19.2712 12.9775C19.2712 12.9775 18.9044 13.1631 18.6525 13.1631C18.122 13.1631 17.9091 12.755 17.9091 12.3165C17.9091 11.4269 18.3655 10.9374 18.8737 10.9374C19.2548 10.9374 19.5609 11.1531 19.5609 11.1531L19.6828 10.3543C19.6828 10.3543 19.2297 10.1696 18.8409 10.1696H18.8409ZM26.1 10.239L25.3491 10.2409L25.1878 11.229C25.1878 11.229 24.9055 10.8456 24.4641 10.8456C23.7777 10.8456 23.2059 11.661 23.2059 12.5987C23.2059 13.204 23.5102 13.7977 24.1341 13.7977C24.5828 13.7977 24.8316 13.4893 24.8316 13.4893L24.7987 13.7527H25.5281L26.1 10.239ZM4.59186 10.2493L3.99375 13.7715H4.71468L5.17032 11.1156L5.23782 13.7715H5.75343L6.71532 11.1156L6.28875 13.7715H7.05468L7.64532 10.2493H6.46032L5.7225 12.4102L5.68407 10.2493H4.59189L4.59186 10.2493ZM12.1237 10.4781C12.1075 10.4944 11.6878 12.9143 11.6878 13.209C11.6878 13.6454 11.9324 13.8403 12.2766 13.8371C12.5232 13.835 12.7141 13.7731 12.8025 13.7471C12.8117 13.7446 12.8297 13.7396 12.8297 13.7396L12.9225 13.1096C12.872 13.1096 12.7977 13.1312 12.7322 13.1312C12.4752 13.1312 12.4468 12.9945 12.4631 12.8931L12.6703 11.6078H13.0612L13.1559 10.9112H12.7875L12.8625 10.4781H12.1237ZM20.8378 10.8325C20.3346 10.8325 19.9491 10.9984 19.9491 10.9984L19.8422 11.6453C19.8422 11.6453 20.1606 11.5131 20.6419 11.5131C20.9151 11.5131 21.1153 11.5443 21.1153 11.7718C21.1153 11.91 21.0909 11.9612 21.0909 11.9612C21.0909 11.9612 20.8749 11.9425 20.775 11.9425C20.1404 11.9425 19.4737 12.2206 19.4737 13.0571C19.4737 13.7163 19.9114 13.8671 20.1825 13.8671C20.7002 13.8671 20.9235 13.5232 20.9353 13.5221L20.9109 13.809H21.5569L21.8456 11.739C21.8457 10.8607 21.0976 10.8324 20.8378 10.8324V10.8325ZM8.72061 10.8362C8.21559 10.8362 7.82811 11.0021 7.82811 11.0021L7.72125 11.649C7.72125 11.649 8.04075 11.5168 8.52375 11.5168C8.79801 11.5168 8.99907 11.5482 8.99907 11.7756C8.99907 11.9137 8.97468 11.965 8.97468 11.965C8.97468 11.965 8.75799 11.9462 8.65782 11.9462C8.02083 11.9462 7.35189 12.2239 7.35189 13.06C7.35189 13.7188 7.79043 13.87 8.0625 13.87C8.58213 13.87 8.8062 13.526 8.81814 13.525L8.79375 13.8118H9.4425L9.73218 11.7428C9.73218 10.8649 8.98137 10.8362 8.72061 10.8362V10.8362ZM11.0119 10.8362C10.4696 10.8362 9.91875 11.0551 9.91875 11.8028C9.91875 12.6499 10.8366 12.5643 10.8366 12.9212C10.8366 13.1594 10.5804 13.179 10.3828 13.179C10.0408 13.179 9.73329 13.0609 9.73218 13.0665L9.63375 13.7134C9.65145 13.7189 9.84189 13.8043 10.4569 13.8043C10.622 13.8043 11.5659 13.8463 11.5659 12.8631C11.5659 11.9439 10.6922 12.1261 10.6922 11.7568C10.6922 11.573 10.8341 11.515 11.0944 11.515C11.1977 11.515 11.596 11.5478 11.596 11.5478L11.6878 10.8943C11.6878 10.8944 11.4309 10.8362 11.0119 10.8362H11.0119ZM14.4019 10.8362C13.6483 10.8364 13.0903 11.6467 13.0903 12.5621C13.0903 13.6187 13.7894 13.87 14.385 13.87C14.9348 13.87 15.1772 13.7471 15.1772 13.7471L15.3084 13.0262C15.3084 13.0262 14.8902 13.21 14.5125 13.21C13.7077 13.21 13.8488 12.6109 13.8488 12.6109H15.3722C15.3722 12.6109 15.4706 12.1267 15.4706 11.9293C15.4706 11.4367 15.2248 10.8362 14.4019 10.8362H14.4019ZM17.131 10.8671C16.7914 10.8671 16.5394 11.3237 16.5394 11.3237L16.6069 10.9046H15.9019L15.4285 13.7978H16.2075C16.4282 12.5623 16.4684 11.5591 16.995 11.7428C17.0872 11.2646 17.1766 11.0798 17.2772 10.8775C17.2772 10.8775 17.2299 10.8671 17.1309 10.8671H17.131ZM23.4431 10.8671C23.1036 10.8671 22.8516 11.3237 22.8516 11.3237L22.9191 10.9046H22.2141L21.7406 13.7978H22.5187C22.7395 12.5623 22.7808 11.5591 23.3072 11.7428C23.3995 11.2646 23.4889 11.0798 23.5894 10.8775C23.5894 10.8775 23.5421 10.8671 23.4431 10.8671H23.4431ZM14.3981 11.4887C14.8261 11.4887 14.7478 11.9718 14.7478 12.0109H13.905C13.905 11.961 13.9847 11.4887 14.3981 11.4887H14.3981ZM24.5822 11.545C24.8546 11.5449 24.9947 11.7289 24.9947 12.1618C24.9947 12.5546 24.7966 13.0796 24.3862 13.0796C24.1139 13.0796 23.9859 12.8547 23.9859 12.5021C23.9859 11.9256 24.2497 11.545 24.5822 11.545H24.5822ZM20.8387 12.5293C20.9499 12.5295 20.9728 12.5403 20.9916 12.5453C20.9889 12.5448 20.9884 12.5453 20.9991 12.5471C21.0131 12.676 20.9212 13.2803 20.4769 13.2803C20.2477 13.2803 20.1891 13.0981 20.1891 12.9906C20.1891 12.7809 20.2982 12.5293 20.8387 12.5293ZM8.72157 12.5321C8.84778 12.5323 8.86155 12.5464 8.88282 12.55C8.89692 12.6787 8.80464 13.2821 8.35875 13.2821C8.12874 13.2821 8.06907 13.1008 8.06907 12.9934C8.06907 12.7839 8.17887 12.5321 8.72157 12.5321Z" fill="#D7DDDF"/>
</g>
<defs>
<clipPath id="clip0_17_783">
<rect width="30" height="24" fill="white"/>
</clipPath>
</defs>
</svg>
