<svg width="28" height="27" viewBox="0 0 28 27" fill="none" xmlns="http://www.w3.org/2000/svg">
<g id="Group">
<path id="Vector" d="M13.2208 1L26.4067 13.9195C26.7671 14.3143 26.9663 14.8253 26.9663 15.355C26.9663 15.8846 26.7671 16.3957 26.4067 16.7905L17.6161 25.4035C17.2132 25.7566 16.6916 25.9518 16.151 25.9518C15.6104 25.9518 15.0888 25.7566 14.6859 25.4035L1.5 12.484V6.742C1.5 5.21913 2.11743 3.75863 3.21647 2.68179C4.31551 1.60496 5.80613 1 7.36041 1H13.2208Z" stroke="#72AEC8" stroke-width="2" stroke-linecap="round" stroke-linejoin="round"/>
<path id="Vector_2" d="M10.2906 12.4842C11.9089 12.4842 13.2208 11.1988 13.2208 9.61319C13.2208 8.02758 11.9089 6.74219 10.2906 6.74219C8.6723 6.74219 7.3604 8.02758 7.3604 9.61319C7.3604 11.1988 8.6723 12.4842 10.2906 12.4842Z" stroke="#72AEC8" stroke-width="2" stroke-linecap="round" stroke-linejoin="round"/>
</g>
</svg>
