<svg width="60" height="24" viewBox="0 0 60 24" fill="none" xmlns="http://www.w3.org/2000/svg">
<g id="fa-brands:dhl">
<path id="Vector" d="M22.3125 16.2383H27.8156L29.9062 13.407H24.4031L22.3125 16.2383ZM0 14.5227V15.1227H7.66875L8.10938 14.5227H0ZM16.2094 13.407C15.3937 13.407 15.6469 13.0695 15.7781 12.8914C16.0406 12.5352 16.4906 11.9164 16.7531 11.5695C17.0156 11.2227 17.0156 11.0164 16.4906 11.0164H11.7094L7.85625 16.2477H17.2406C20.3438 16.2477 22.0688 14.1383 22.6031 13.407H16.2094ZM45.975 12.7602L49.6594 7.75391H43.8281L40.1438 12.7602H45.975ZM8.93438 13.407H0V14.007H8.49375L8.93438 13.407ZM19.3406 10.9133C19.0781 11.2695 18.6375 11.8883 18.375 12.2445C18.2437 12.432 17.9906 12.7602 18.8063 12.7602H23.0812C23.0812 12.7602 23.7656 11.8227 24.3469 11.0352C25.1344 9.96641 24.4125 7.75391 21.6094 7.75391H10.5562L8.64375 10.3602H19.0875C19.6125 10.3602 19.6031 10.5664 19.3406 10.9133ZM0 16.2383H6.85312L7.29375 15.6383H0V16.2383ZM30.2812 16.2383H35.7844L37.875 13.407H32.3719C32.3625 13.407 30.2812 16.2383 30.2812 16.2383ZM51.0938 16.2477H60V15.6477H51.5344L51.0938 16.2477ZM53.1844 13.407L52.7437 14.007H60V13.407H53.1844ZM51.9187 15.1227H60V14.5227H52.3594L51.9187 15.1227ZM36.525 7.75391L34.4156 10.6227H31.9594L34.0687 7.75391H28.5656L24.8812 12.7602H38.3438L42.0281 7.75391H36.525ZM39.6656 13.407C39.6656 13.407 39.2625 13.9602 39.0656 14.2227C38.3719 15.1602 38.9813 16.2477 41.2406 16.2477H50.0813L52.1719 13.407H39.6656Z" fill="#D7DDDF"/>
</g>
</svg>
