<svg width="38" height="24" viewBox="0 0 38 24" fill="none" xmlns="http://www.w3.org/2000/svg">
<g id="arcticons:post">
<path id="Vector" d="M22.2476 6.38319L19.8117 9.72719C19.4389 9.37424 18.9854 9.11789 18.4908 8.98054C17.9961 8.84318 17.4754 8.82899 16.974 8.9392C16.4726 9.04941 16.0058 9.28067 15.6143 9.6128C15.2229 9.94492 14.9187 10.3678 14.7283 10.8446C14.5378 11.3213 14.467 11.8374 14.522 12.3478C14.5769 12.8583 14.756 13.3475 15.0435 13.7727C15.331 14.198 15.7183 14.5465 16.1715 14.7877C16.6246 15.0289 17.13 15.1555 17.6433 15.1564C18.5489 15.2382 19.451 14.9658 20.16 14.3964C21.0063 13.733 24.8451 8.46686 26.5377 4.95978M26.5377 4.95898H34.4369H26.5377Z" stroke="#D7DDDF" stroke-linecap="round" stroke-linejoin="round"/>
<path id="Vector_2" d="M34.4375 4.95764C27.5777 15.3681 22.663 19.3921 17.9265 19.309C13.19 19.2259 10.355 16.0449 10.355 12.0043C10.3494 10.6302 10.7324 9.2826 11.46 8.11698C12.1876 6.95136 13.23 6.01527 14.4668 5.41679C15.7037 4.8183 17.0846 4.58183 18.4501 4.73466C19.8157 4.88749 21.1101 5.4234 22.1841 6.28052M3.5625 4.95764L7.36171 11.287M7.3625 11.2609C7.5112 8.84926 8.56465 6.58262 10.3123 4.9141L3.5625 4.95843L7.3625 11.2609Z" stroke="#D7DDDF" stroke-linecap="round" stroke-linejoin="round"/>
</g>
</svg>
