<svg width="29" height="24" viewBox="0 0 29 24" fill="none" xmlns="http://www.w3.org/2000/svg">
<g id="fontisto:paypal">
<path id="Vector" d="M27.0667 22H1.93333C1.42058 22 0.928831 21.7998 0.56626 21.4435C0.20369 21.0872 0 20.6039 0 20.1L0 4.9C0 4.39609 0.20369 3.91282 0.56626 3.5565C0.928831 3.20018 1.42058 3 1.93333 3H27.0667C27.5794 3 28.0712 3.20018 28.4337 3.5565C28.7963 3.91282 29 4.39609 29 4.9V20.1C29 20.6039 28.7963 21.0872 28.4337 21.4435C28.0712 21.7998 27.5794 22 27.0667 22ZM11.3036 11.174C11.2815 11.1742 11.2598 11.1794 11.24 11.189C11.2202 11.1985 11.2028 11.2124 11.1892 11.2294C11.1574 11.2611 11.1393 11.3036 11.1384 11.3481C11.1384 11.3647 11.2174 11.6015 11.3865 12.0868L11.7522 13.1365L11.9222 13.6258C12.1129 14.1746 12.2125 14.4665 12.2211 14.5013C11.846 14.9577 11.507 15.4415 11.2069 15.9485L11.1763 16.0039L11.1747 16.0237C11.1747 16.1029 11.2399 16.1678 11.3213 16.1678L11.343 16.1662H11.3422H12.3234C12.3691 16.1659 12.414 16.1542 12.4539 16.1322C12.4938 16.1102 12.5273 16.0786 12.5514 16.0403L12.5522 16.0395L15.8002 11.4328C15.8172 11.4107 15.8266 11.3838 15.8267 11.356L15.8259 11.3442V11.345C15.8248 11.3005 15.8067 11.2581 15.7752 11.2262C15.7617 11.2092 15.7444 11.1955 15.7248 11.1859C15.7051 11.1763 15.6835 11.1711 15.6616 11.1708H14.6796C14.6338 11.1711 14.5888 11.1828 14.5488 11.2048C14.5088 11.2268 14.4751 11.2584 14.4509 11.2967L14.4501 11.2975L13.0967 13.2497L12.5369 11.3719C12.5225 11.3147 12.4891 11.2638 12.442 11.2274C12.3948 11.1909 12.3366 11.171 12.2767 11.1708L12.2557 11.1716H12.2565L11.3036 11.174ZM22.5636 11.0861H22.5427C21.9321 11.0861 21.3835 11.3465 21.0049 11.7598L21.0033 11.7614C20.5892 12.1823 20.358 12.745 20.3588 13.3305V13.3518V13.351C20.3572 13.374 20.3572 13.4017 20.3572 13.4286C20.3572 13.8538 20.5256 14.2409 20.7994 14.5283L20.7986 14.5275C20.9544 14.6766 21.1399 14.7925 21.3434 14.868C21.5468 14.9434 21.764 14.9768 21.9812 14.966H21.9772C22.2486 14.9629 22.5064 14.9083 22.7416 14.8101L22.7288 14.8148C22.9664 14.727 23.1678 14.59 23.3265 14.4158L23.3281 14.4143C23.32 14.4594 23.3112 14.4974 23.3007 14.5338L23.3023 14.5259C23.2879 14.5743 23.2793 14.6243 23.2765 14.6747V14.6763C23.2765 14.8093 23.3321 14.8766 23.4425 14.8766H24.3213C24.3557 14.8796 24.3902 14.8758 24.4231 14.8655C24.4559 14.8552 24.4862 14.8385 24.5124 14.8164C24.5385 14.7943 24.5599 14.7674 24.5752 14.737C24.5905 14.7067 24.5995 14.6737 24.6017 14.6399V14.6391L25.1237 11.3719C25.1286 11.3472 25.1277 11.3218 25.1212 11.2975C25.1146 11.2732 25.1025 11.2507 25.0858 11.2318C25.0713 11.2121 25.0523 11.1962 25.0303 11.1852C25.0083 11.1742 24.984 11.1684 24.9593 11.1684H23.9903C23.8718 11.1684 23.7969 11.307 23.7728 11.5817C23.631 11.4029 23.4445 11.2632 23.2315 11.1762C23.0184 11.0892 22.7861 11.0579 22.5572 11.0853L22.5636 11.0845V11.0861ZM8.09342 11.0861H8.07086C7.46106 11.0861 6.91247 11.3465 6.53547 11.7598L6.53386 11.7614C6.11977 12.1823 5.88864 12.745 5.88942 13.3305V13.3518V13.351C5.87875 13.5662 5.91234 13.7813 5.98819 13.9834C6.06404 14.1856 6.18058 14.3706 6.33086 14.5275L6.33006 14.5267C6.61522 14.799 7.00511 14.9668 7.43528 14.9668L7.51261 14.9653H7.50858C7.77603 14.9613 8.02978 14.9067 8.26097 14.8093L8.24808 14.814C8.48895 14.7238 8.69356 14.5876 8.85869 14.4143L8.8595 14.4135C8.82969 14.491 8.81117 14.5813 8.80875 14.6747V14.6763C8.80875 14.8093 8.86514 14.8766 8.97469 14.8766H9.85275C9.88707 14.8796 9.92166 14.8758 9.95447 14.8655C9.98728 14.8552 10.0177 14.8385 10.0438 14.8164C10.0699 14.7943 10.0913 14.7674 10.1066 14.737C10.122 14.7067 10.131 14.6737 10.1331 14.6399V14.6391L10.6559 11.3719C10.6603 11.3474 10.6591 11.3223 10.6524 11.2983C10.6457 11.2744 10.6337 11.2522 10.6172 11.2333C10.6027 11.2137 10.5837 11.1977 10.5617 11.1867C10.5397 11.1757 10.5154 11.17 10.4908 11.17H9.52167C9.40325 11.17 9.32833 11.3085 9.30497 11.5833C9.1617 11.4059 8.97491 11.2672 8.76213 11.1802C8.54936 11.0933 8.31759 11.0609 8.08858 11.0861L8.09503 11.0853L8.09342 11.0861ZM26.2708 9.33333L26.2579 9.33254C26.2194 9.33241 26.1823 9.34651 26.154 9.37203C26.1256 9.39755 26.1081 9.43263 26.1048 9.47029V9.47108L25.2767 14.6787C25.2699 14.7037 25.2698 14.7301 25.2765 14.7552C25.2831 14.7803 25.2962 14.8033 25.3146 14.822C25.3298 14.8397 25.3488 14.8539 25.3703 14.8636C25.3917 14.8733 25.415 14.8783 25.4386 14.8782H26.2845L26.3103 14.8798C26.3743 14.8798 26.4358 14.8547 26.4811 14.8102C26.5265 14.7656 26.5519 14.7052 26.5519 14.6423V14.6407L27.3784 9.52254L27.3792 9.50513C27.3792 9.45998 27.3642 9.41609 27.3365 9.38004V9.38083C27.3221 9.36567 27.3046 9.35356 27.2852 9.34526C27.2658 9.33696 27.2449 9.33263 27.2237 9.33254L27.2117 9.33333H27.2125H26.2708ZM16.8699 9.33333C16.8354 9.32888 16.8002 9.33163 16.7668 9.34142C16.7334 9.35121 16.7024 9.36782 16.676 9.39015C16.6495 9.41249 16.6282 9.44005 16.6133 9.47105C16.5984 9.50204 16.5903 9.53578 16.5896 9.57004L15.7623 14.6779C15.758 14.7022 15.7592 14.7271 15.7658 14.7509C15.7723 14.7746 15.784 14.7968 15.8002 14.8156C15.8144 14.8353 15.8332 14.8514 15.8551 14.8624C15.877 14.8734 15.9013 14.8791 15.9258 14.879H16.9771C17.0243 14.8789 17.07 14.8628 17.1064 14.8334C17.1428 14.8039 17.1677 14.7629 17.1769 14.7175V14.7159L17.4064 13.264C17.4133 13.2004 17.4454 13.1421 17.4959 13.1017H17.4967C17.5516 13.058 17.6176 13.0298 17.6876 13.0201H17.69C17.7552 13.0083 17.8302 13.0019 17.9067 13.0011H17.9075C17.9752 13.0011 18.0557 13.0051 18.1492 13.0138C18.2513 13.0253 18.3541 13.0306 18.4569 13.0296C19.0471 13.0306 19.6158 12.8119 20.0487 12.4177L20.0471 12.4193C20.2629 12.1943 20.4296 11.9283 20.5368 11.6376C20.6441 11.3469 20.6896 11.0377 20.6706 10.729V10.7354C20.6879 10.5313 20.6523 10.3262 20.567 10.1393C20.4818 9.95236 20.3498 9.78974 20.1832 9.66663L20.18 9.66425C19.7956 9.42536 19.3453 9.30947 18.8911 9.33254H18.8959L16.8699 9.33333ZM2.38444 9.33333C2.35075 9.32978 2.31667 9.33323 2.28441 9.34347C2.25216 9.3537 2.22246 9.37049 2.19724 9.39274C2.17202 9.41498 2.15184 9.4422 2.13802 9.47261C2.12419 9.50302 2.11703 9.53594 2.117 9.56925V9.57083L1.28889 14.6787C1.28457 14.703 1.28572 14.7279 1.29226 14.7517C1.2988 14.7755 1.31058 14.7976 1.32675 14.8164C1.34098 14.8361 1.35983 14.8522 1.38171 14.8632C1.40358 14.8742 1.42783 14.8799 1.45242 14.8798H2.42231C2.45688 14.8842 2.49203 14.8815 2.52545 14.8717C2.55887 14.8619 2.58982 14.8453 2.61627 14.8229C2.64272 14.8006 2.66409 14.773 2.67897 14.742C2.69385 14.711 2.70192 14.6773 2.70264 14.643L2.93222 13.2663C2.9392 13.203 2.97098 13.1448 3.02083 13.104H3.02164C3.0766 13.0604 3.14258 13.0322 3.21256 13.0225H3.21497C3.28625 13.0101 3.35848 13.0038 3.43086 13.0035H3.43167C3.49933 13.0035 3.57989 13.0075 3.67333 13.0162C3.77521 13.0277 3.87771 13.033 3.98025 13.032C4.59489 13.032 5.15394 12.8 5.57283 12.42L5.57122 12.4216C5.787 12.1966 5.95363 11.9306 6.06086 11.6399C6.16809 11.3492 6.21364 11.04 6.19472 10.7314V10.7378C6.21206 10.5336 6.17645 10.3285 6.09122 10.1416C6.00598 9.95473 5.87392 9.79212 5.70736 9.669L5.70414 9.66663C5.32141 9.42862 4.87327 9.3125 4.42089 9.33413H4.42572L2.38444 9.33333ZM22.5104 13.9527L22.4718 13.9535C22.266 13.9537 22.0667 13.8822 21.9095 13.7516L21.9111 13.7524C21.8384 13.6866 21.7804 13.6067 21.7407 13.5177C21.7011 13.4287 21.6807 13.3326 21.6807 13.2355L21.6815 13.1998V13.1785C21.6815 12.8824 21.8032 12.614 22.0005 12.4193C22.1947 12.2237 22.4653 12.1026 22.765 12.1026H22.7916H22.79L22.8174 12.1018C23.0341 12.1018 23.2314 12.1802 23.3829 12.3092L23.3821 12.3084C23.4569 12.3765 23.5165 12.459 23.5573 12.5509C23.598 12.6427 23.619 12.7418 23.6189 12.842L23.6181 12.88V12.8784V12.8974C23.6181 13.1895 23.4948 13.454 23.2959 13.6416C23.1954 13.74 23.0761 13.818 22.945 13.8711C22.8138 13.9242 22.6733 13.9514 22.5314 13.9511H22.5112H22.5121L22.5104 13.9527ZM8.02736 13.9527L7.98708 13.9535C7.77603 13.9535 7.58189 13.8775 7.43367 13.7516L7.43447 13.7524C7.36364 13.6858 7.30727 13.6059 7.26878 13.5173C7.23029 13.4287 7.21047 13.3334 7.21053 13.237L7.21133 13.1998V13.1785C7.21133 12.8824 7.33297 12.614 7.53033 12.4193C7.72447 12.2237 7.99433 12.1026 8.294 12.1026H8.3222H8.32058L8.34797 12.1018C8.56467 12.1018 8.76203 12.1802 8.91347 12.3092L8.91267 12.3084C8.98726 12.3764 9.04674 12.4589 9.08736 12.5506C9.12798 12.6423 9.14886 12.7412 9.14869 12.8412L9.14789 12.88V12.8784V12.9061C9.14789 13.1982 9.02464 13.4611 8.82567 13.6487C8.6192 13.844 8.34372 13.953 8.05717 13.9527H8.02817H8.02978H8.02736ZM17.6191 11.926L17.8358 10.5873C17.8375 10.5676 17.8432 10.5484 17.8525 10.5309C17.8617 10.5133 17.8745 10.4977 17.8899 10.485C17.9053 10.4723 17.9231 10.4627 17.9423 10.4567C17.9615 10.4508 17.9817 10.4486 18.0018 10.4504H18.0009H18.2305L18.2797 10.4496C18.419 10.4496 18.5568 10.4591 18.6913 10.4773L18.676 10.4757C18.8009 10.4979 18.9096 10.5533 18.995 10.6325C19.0437 10.6777 19.0824 10.7321 19.1089 10.7926C19.1353 10.853 19.1489 10.9182 19.1489 10.984L19.1481 11.014V11.0125C19.165 11.1447 19.1484 11.279 19.0998 11.4035C19.0511 11.5279 18.972 11.6386 18.8693 11.7258L18.8685 11.7265C18.6118 11.8705 18.3175 11.9366 18.0227 11.9165H18.0275L17.6207 11.9292L17.6191 11.926ZM3.13603 11.926L3.35272 10.5873C3.35434 10.5676 3.35993 10.5484 3.36918 10.5307C3.37842 10.5131 3.39113 10.4975 3.40657 10.4848C3.42201 10.472 3.43986 10.4624 3.45911 10.4565C3.47835 10.4506 3.4986 10.4485 3.51867 10.4504H3.51786H3.75953C4.01744 10.4318 4.27562 10.4827 4.50628 10.5976L4.49822 10.5937C4.65047 10.6895 4.70203 10.8929 4.65128 11.2001C4.64739 11.3148 4.6155 11.4268 4.5583 11.5269C4.5011 11.6269 4.42027 11.7119 4.32261 11.7748L4.32019 11.7764C3.93838 11.9146 3.52956 11.9655 3.12475 11.9253L3.13603 11.926Z" fill="#D7DDDF"/>
</g>
</svg>
