<svg width="18" height="18" viewBox="0 0 18 18" fill="none" xmlns="http://www.w3.org/2000/svg">
<path d="M11.6944 2.27039C11.0103 1.53176 10.0547 1.125 9.00002 1.125C7.93971 1.125 6.98099 1.5293 6.30002 2.26336C5.61166 3.00551 5.27627 4.01414 5.35502 5.10328C5.51111 7.25203 7.14623 9 9.00002 9C10.8538 9 12.4861 7.25238 12.6447 5.10398C12.7245 4.02469 12.387 3.01816 11.6944 2.27039ZM15.1875 16.875H2.81252C2.65054 16.8771 2.49013 16.8431 2.34296 16.7754C2.19579 16.7077 2.06555 16.6081 1.96174 16.4837C1.73322 16.2105 1.64111 15.8375 1.70931 15.4603C2.00603 13.8143 2.93205 12.4316 4.38752 11.4609C5.68056 10.5993 7.31849 10.125 9.00002 10.125C10.6815 10.125 12.3195 10.5996 13.6125 11.4609C15.068 12.4312 15.994 13.8139 16.2907 15.46C16.3589 15.8372 16.2668 16.2102 16.0383 16.4834C15.9345 16.6078 15.8043 16.7075 15.6571 16.7752C15.51 16.843 15.3495 16.8771 15.1875 16.875Z" fill="#272727"/>
</svg>
