<svg width="28" height="27" viewBox="0 0 28 27" fill="none" xmlns="http://www.w3.org/2000/svg">
<g id="Group">
<path id="Vector" d="M9.73697 13.4998L12.572 16.2776L18.2421 10.722" stroke="#72AEC8" stroke-width="2" stroke-linecap="round" stroke-linejoin="round"/>
<path id="Vector_2" d="M13.9895 1C17.3006 3.87024 21.6222 5.36468 26.0385 5.16667C26.6815 7.30974 26.8783 9.55759 26.6171 11.7766C26.3559 13.9957 25.6421 16.1407 24.5181 18.0841C23.3941 20.0275 21.8829 21.7297 20.0742 23.0896C18.2655 24.4494 16.1963 25.4392 13.9895 26C11.7827 25.4392 9.71353 24.4494 7.90485 23.0896C6.09618 21.7297 4.58495 20.0275 3.46097 18.0841C2.33699 16.1407 1.6232 13.9957 1.36201 11.7766C1.10081 9.55759 1.29755 7.30974 1.94053 5.16667C6.35689 5.36468 10.6784 3.87024 13.9895 1" stroke="#72AEC8" stroke-width="2" stroke-linecap="round" stroke-linejoin="round"/>
</g>
</svg>
