<svg width="17" height="18" viewBox="0 0 17 18" fill="none" xmlns="http://www.w3.org/2000/svg">
<g id="ion:star">
<path id="Vector" d="M13.0816 16.4375C12.9698 16.438 12.8607 16.4031 12.7698 16.3379L8.49958 13.2421L4.22933 16.3379C4.1381 16.4041 4.02818 16.4395 3.91548 16.4391C3.80278 16.4387 3.69313 16.4025 3.60238 16.3356C3.51164 16.2688 3.44449 16.1748 3.41066 16.0673C3.37683 15.9598 3.37807 15.8444 3.41419 15.7376L5.07966 10.8046L0.763252 7.84455C0.669756 7.78051 0.599191 7.68824 0.561866 7.58123C0.524541 7.47423 0.522414 7.35809 0.555794 7.24979C0.589175 7.14149 0.656314 7.0467 0.747402 6.97927C0.838489 6.91185 0.948753 6.87532 1.06208 6.87502H6.3872L7.99423 1.92941C8.02885 1.82264 8.0964 1.72957 8.18719 1.66357C8.27797 1.59756 8.38733 1.56201 8.49958 1.56201C8.61183 1.56201 8.72119 1.59756 8.81198 1.66357C8.90277 1.72957 8.97031 1.82264 9.00493 1.92941L10.612 6.87668H15.9371C16.0506 6.87662 16.1611 6.9129 16.2524 6.9802C16.3438 7.04749 16.4112 7.14227 16.4448 7.25066C16.4784 7.35904 16.4764 7.47533 16.4391 7.5825C16.4018 7.68967 16.3312 7.78208 16.2376 7.84621L11.9195 10.8046L13.584 15.7363C13.6109 15.8161 13.6185 15.9012 13.6061 15.9846C13.5937 16.0679 13.5616 16.1471 13.5125 16.2157C13.4634 16.2842 13.3988 16.34 13.3238 16.3786C13.2489 16.4172 13.1659 16.4374 13.0816 16.4375Z" fill="#3A3A3A"/>
</g>
</svg>
