<svg width="18" height="17" viewBox="0 0 18 17" fill="none" xmlns="http://www.w3.org/2000/svg">
<g id="ion:star">
<path id="Vector" d="M13.5816 15.9375C13.4698 15.938 13.3607 15.9031 13.2698 15.8379L8.99958 12.7421L4.72933 15.8379C4.6381 15.9041 4.52818 15.9395 4.41548 15.9391C4.30278 15.9387 4.19313 15.9025 4.10238 15.8356C4.01164 15.7688 3.94449 15.6748 3.91066 15.5673C3.87683 15.4598 3.87807 15.3444 3.91419 15.2376L5.57966 10.3046L1.26325 7.34455C1.16976 7.28051 1.09919 7.18824 1.06187 7.08123C1.02454 6.97423 1.02241 6.85809 1.05579 6.74979C1.08917 6.64149 1.15631 6.5467 1.2474 6.47927C1.33849 6.41185 1.44875 6.37532 1.56208 6.37502H6.8872L8.49423 1.42941C8.52885 1.32264 8.5964 1.22957 8.68719 1.16357C8.77797 1.09756 8.88733 1.06201 8.99958 1.06201C9.11183 1.06201 9.22119 1.09756 9.31198 1.16357C9.40277 1.22957 9.47031 1.32264 9.50493 1.42941L11.112 6.37668H16.4371C16.5506 6.37662 16.6611 6.4129 16.7524 6.4802C16.8438 6.54749 16.9112 6.64227 16.9448 6.75066C16.9784 6.85904 16.9764 6.97533 16.9391 7.0825C16.9018 7.18967 16.8312 7.28208 16.7376 7.34621L12.4195 10.3046L14.084 15.2363C14.1109 15.3161 14.1185 15.4012 14.1061 15.4846C14.0937 15.5679 14.0616 15.6471 14.0125 15.7157C13.9634 15.7842 13.8988 15.84 13.8238 15.8786C13.7489 15.9172 13.6659 15.9374 13.5816 15.9375Z" fill="#72AEC8"/>
</g>
</svg>
