<svg width="30" height="24" viewBox="0 0 30 24" fill="none" xmlns="http://www.w3.org/2000/svg">
<g id="brandico:visa">
<path id="Vector" d="M1.2 2.58008C0.53739 2.58008 0 3.11732 0 3.78008V20.2201C0 20.8828 0.53766 21.4201 1.2 21.4201H28.8C29.4626 21.4201 30 20.8828 30 20.2201V3.78008C30 3.11735 29.4623 2.58008 28.8 2.58008H1.2ZM17.9175 8.19476C18.6476 8.19476 19.2328 8.35604 19.6059 8.50601L19.3509 10.1101L19.1822 10.0248C18.8346 9.87479 18.3881 9.73046 17.7722 9.74069C17.0349 9.74069 16.6941 10.0696 16.6941 10.3773C16.6898 10.724 17.0923 10.9527 17.7506 11.2951C18.8371 11.8234 19.3393 12.4639 19.3322 13.306C19.3176 14.8425 18.0325 15.8354 16.0528 15.8354C15.2082 15.8261 14.3945 15.6473 13.9547 15.4407L14.2191 13.7832L14.4619 13.9013C15.0804 14.1777 15.4809 14.2895 16.2347 14.2895C16.776 14.2895 17.3569 14.0628 17.3616 13.5666C17.3651 13.2426 17.1187 13.0116 16.3856 12.6488C15.6713 12.2947 14.7242 11.7015 14.7347 10.6379C14.7459 9.19907 16.0566 8.19476 17.9175 8.19476ZM2.65311 8.43008H5.69343C6.10284 8.44556 6.43338 8.57738 6.5475 9.02165L7.20282 12.4041C7.20291 12.4044 7.2027 12.4057 7.20282 12.406L7.39968 13.4195L9.24561 8.43008H11.2425L8.27436 15.7332L6.27936 15.7351L4.69125 9.84194C5.63619 10.3425 6.44067 10.9218 6.90657 11.7188C6.78645 11.4666 6.62817 11.1819 6.42564 10.9013C6.18978 10.5746 5.68041 10.1527 5.4675 9.97319C4.7256 9.34778 3.71805 8.84267 2.62968 8.5754L2.65311 8.43008ZM12.0366 8.43851H13.9894L12.7678 15.7304H10.815L12.0366 8.43851ZM23.0662 8.43851H24.5456L26.0944 15.7304H24.3188C24.3188 15.7304 24.1426 14.8927 24.0853 14.6373C23.8062 14.6373 21.8543 14.6345 21.6347 14.6345C21.5604 14.8319 21.2316 15.7304 21.2316 15.7304H19.2225L22.0641 9.04415C22.2652 8.56901 22.6082 8.43851 23.0662 8.43851ZM23.2116 10.3998C23.1155 10.671 22.9482 11.109 22.9594 11.0898C22.9594 11.0898 22.3582 12.693 22.201 13.1091L23.7806 13.1082C23.6339 12.4129 23.487 11.7176 23.34 11.0223L23.2116 10.3998V10.3998Z" fill="#D7DDDF"/>
</g>
</svg>
